<?xml version="1.0" encoding="UTF-8" standalone="no"?>
<svg
   xmlns:dc="http://purl.org/dc/elements/1.1/"
   xmlns:cc="http://creativecommons.org/ns#"
   xmlns:rdf="http://www.w3.org/1999/02/22-rdf-syntax-ns#"
   xmlns:svg="http://www.w3.org/2000/svg"
   xmlns="http://www.w3.org/2000/svg"
   xmlns:sodipodi="http://sodipodi.sourceforge.net/DTD/sodipodi-0.dtd"
   xmlns:inkscape="http://www.inkscape.org/namespaces/inkscape"
   inkscape:export-ydpi="96"
   inkscape:export-xdpi="96"
   inkscape:export-filename="F:\PyGame\Koponen-Dating-Simulator\Assets\Textures\Branding\kl_corporation-logo.png"
   width="165.77499mm"
   height="150.84599mm"
   viewBox="0 0 165.77499 150.84599"
   version="1.1"
   id="svg8"
   sodipodi:docname="default_logo.svg"
   inkscape:version="1.0 (4035a4fb49, 2020-05-01)">
  <defs
     id="defs2" />
  <sodipodi:namedview
     id="base"
     pagecolor="#ffffff"
     bordercolor="#666666"
     borderopacity="1.0"
     inkscape:pageopacity="0.0"
     inkscape:pageshadow="2"
     inkscape:zoom="0.88824405"
     inkscape:cx="251.94255"
     inkscape:cy="251.82576"
     inkscape:document-units="mm"
     inkscape:current-layer="layer1"
     inkscape:document-rotation="0"
     showgrid="false"
     inkscape:window-width="1271"
     inkscape:window-height="1198"
     inkscape:window-x="1920"
     inkscape:window-y="163"
     inkscape:window-maximized="0"
     inkscape:object-paths="true"
     inkscape:snap-intersection-paths="true"
     inkscape:snap-smooth-nodes="true"
     inkscape:snap-midpoints="true"
     inkscape:snap-object-midpoints="true"
     inkscape:snap-center="true"
     inkscape:snap-text-baseline="true"
     inkscape:snap-page="true"
     inkscape:snap-bbox="true"
     inkscape:bbox-paths="true"
     inkscape:bbox-nodes="true"
     inkscape:snap-bbox-edge-midpoints="true"
     inkscape:snap-bbox-midpoints="true"
     inkscape:snap-global="false"
     inkscape:pagecheckerboard="false" />
  <metadata
     id="metadata5">
    <rdf:RDF>
      <cc:Work
         rdf:about="">
        <dc:format>image/svg+xml</dc:format>
        <dc:type
           rdf:resource="http://purl.org/dc/dcmitype/StillImage" />
        <dc:title />
      </cc:Work>
    </rdf:RDF>
  </metadata>
  <g
     inkscape:label="Taso 1"
     inkscape:groupmode="layer"
     id="layer1">
    <rect
       y="-7.7446809"
       x="-5.3617024"
       height="165.02127"
       width="178.42552"
       id="rect845"
       style="fill:#ffffff;stroke:#ffffff;stroke-width:2.5;stroke-linecap:round;stroke-linejoin:round" />
    <g
       inkscape:export-ydpi="96"
       inkscape:export-xdpi="96"
       aria-label="KL"
       id="text835"
       style="font-style:normal;font-variant:normal;font-weight:normal;font-stretch:normal;font-size:145.208px;line-height:1.25;fill:#0000ff;fill-opacity:1;stroke-width:0.756292"
       transform="translate(-14.456978,-15.518344)">
      <path
         d="m 54.477222,94.409413 v 24.975777 q 0,7.11519 -4.35624,10.8906 -4.356239,3.7754 -10.309767,3.7754 -6.098736,0 -10.454976,-3.7754 Q 25,126.50038 25,119.38519 V 39.666 q 0,-7.2604 4.356239,-10.8906 4.35624,-3.775408 10.454976,-3.775408 5.953528,0 10.309767,3.775408 4.35624,3.6302 4.35624,10.8906 V 64.641774 L 77.129669,32.986432 q 3.484992,-4.937072 6.679568,-6.389152 3.339783,-1.597288 6.824775,-1.597288 3.775408,0 6.679568,1.306872 2.90416,1.161664 4.79186,3.194576 1.88771,2.032912 2.75896,4.646656 1.01645,2.613744 1.01645,5.227488 0,2.613744 -1.01645,5.227487 -1.01646,2.613744 -3.6302,5.80832 L 77.565293,79.017366 101.96024,108.49459 q 2.46853,2.90416 3.48499,5.5179 1.01645,2.61375 1.01645,5.3727 0,2.90416 -1.16166,5.5179 -1.16166,2.61375 -3.19458,4.64666 -2.03291,2.03291 -4.79186,3.33978 -2.758952,1.16166 -5.953528,1.16166 -3.339784,0 -6.534359,-1.45208 -3.194576,-1.59728 -5.953528,-5.37269 z"
         style="font-style:normal;font-variant:normal;font-weight:normal;font-stretch:normal;font-size:145.208px;fill:#0000ff;fill-opacity:1;stroke-width:0.756292"
         id="path1517" />
      <path
         d="m 130.421,133.17995 q -14.666,0 -14.666,-14.81122 V 39.666 q 0,-7.2604 4.21103,-10.8906 4.35624,-3.775408 10.45497,-3.775408 5.95353,0 10.30977,3.775408 4.35624,3.6302 4.35624,10.8906 v 63.74631 h 15.82767 q 6.96999,0 10.45498,4.50145 3.6302,4.35624 3.6302,10.45497 0,6.09874 -3.6302,10.45498 -3.48499,4.35624 -10.45498,4.35624 z"
         style="font-style:normal;font-variant:normal;font-weight:normal;font-stretch:normal;font-size:145.208px;fill:#0000ff;fill-opacity:1;stroke-width:0.756292"
         id="path1519" />
    </g>
    <path
       inkscape:export-ydpi="96"
       inkscape:export-xdpi="96"
       d="M 140.35373,13.841103 C 109.63064,31.81782 67.608082,65.917476 32.225444,97.771376 15.787374,113.00888 5.7654724,134.94002 2.5037441,146.55394 39.358094,109.47719 106.98655,50.743133 147.92949,26.786567 Z"
       style="color:#000000;font-style:normal;font-variant:normal;font-weight:normal;font-stretch:normal;font-size:medium;line-height:normal;font-family:sans-serif;font-variant-ligatures:normal;font-variant-position:normal;font-variant-caps:normal;font-variant-numeric:normal;font-variant-alternates:normal;font-variant-east-asian:normal;font-feature-settings:normal;font-variation-settings:normal;text-indent:0;text-align:start;text-decoration:none;text-decoration-line:none;text-decoration-style:solid;text-decoration-color:#000000;letter-spacing:normal;word-spacing:normal;text-transform:none;writing-mode:lr-tb;direction:ltr;text-orientation:mixed;dominant-baseline:auto;baseline-shift:baseline;text-anchor:start;white-space:normal;shape-padding:0;shape-margin:0;inline-size:0;clip-rule:nonzero;display:inline;overflow:visible;visibility:visible;opacity:1;isolation:auto;mix-blend-mode:normal;color-interpolation:sRGB;color-interpolation-filters:linearRGB;solid-color:#000000;solid-opacity:1;vector-effect:none;fill:#0000ff;fill-opacity:1;fill-rule:nonzero;stroke:#ffffff;stroke-width:2.5;stroke-linecap:butt;stroke-linejoin:miter;stroke-miterlimit:4;stroke-dasharray:none;stroke-dashoffset:0;stroke-opacity:1;color-rendering:auto;image-rendering:auto;shape-rendering:auto;text-rendering:auto;enable-background:accumulate;stop-color:#000000;stop-opacity:1"
       id="path863" />
    <path
       inkscape:export-ydpi="96"
       inkscape:export-xdpi="96"
       d="m 149.51079,1.2501412 c -0.0565,0.0013 -0.12139,0.01022 -0.1943,0.02584 -3.25,0.666677 -5.62478,3.999648 -4.79144,6.791317 0.20719,0.692814 0.48625,1.308743 0.8232,1.853117 -2.0776,0.7094408 -3.65662,2.0226168 -3.65662,4.4384898 0,0.33415 0.0479,0.652214 0.13746,0.954463 -1.45738,0.404053 -2.30425,1.523905 -2.30425,4.128947 0,5.333323 7.04181,6.791833 12.41681,6.791833 6.25,0 12.58321,-1.45851 12.58321,-6.791833 0,-2.695638 -0.8414,-3.804546 -2.33371,-4.171838 0.0815,-0.289455 0.12558,-0.593151 0.12558,-0.911572 0.0195,-2.242113 -1.32959,-3.535189 -3.20601,-4.276743 0.39342,-0.8158788 0.43967,-1.7400318 -0.003,-2.7228308 -1.91667,-4.291669 -10.99982,0.124966 -9.41648,-5.083411 0.21875,-0.692711 0.21447,-1.034888 -0.18087,-1.025777 z"
       style="fill:#ffffff;fill-opacity:1;stroke:#ffffff;stroke-width:2.5;stroke-miterlimit:4;stroke-dasharray:none;stroke-opacity:1"
       id="path974" />
    <g
       inkscape:export-ydpi="96"
       inkscape:export-xdpi="96"
       id="g1515"
       transform="matrix(1.574803,0,0,1.574803,-15.741807,-387.02715)">
      <path
         style="fill:#000080;fill-opacity:1;stroke-width:0.264583"
         d="m 106.58486,255.77988 c -4.52437,0 -7.990412,-1.87854 -7.990412,2.32834 0,3.38666 4.471462,4.3127 7.884582,4.3127 3.96875,0 7.99042,-0.92604 7.99042,-4.3127 0,-4.20688 -3.22792,-2.32834 -7.88459,-2.32834"
         fill="#89664c"
         id="path877" />
      <path
         style="fill:#0000c0;fill-opacity:1;stroke-width:0.264583"
         d="m 106.45257,251.54655 c -2.54,0 -6.482289,0.29104 -6.482289,3.33375 0,4.445 13.096879,4.445 13.096879,0 0.0265,-3.04271 -3.91584,-3.33375 -6.61459,-3.33375"
         fill="#9b7861"
         id="path879" />
      <path
         style="fill:#0600ff;fill-opacity:1;stroke-width:0.264583"
         d="m 111.02987,250.4353 c -1.21709,-2.72521 -6.98501,0.0794 -5.97959,-3.22792 0.15875,-0.50271 0.13229,-0.71437 -0.23812,-0.635 -2.06375,0.42334 -3.57188,2.54 -3.04271,4.31271 1.69333,5.66208 10.92729,3.25438 9.26042,-0.44979"
         fill="#a88673"
         id="path881" />
      <path
         style="stroke-width:0.264583"
         d="m 105.68528,255.09197 c 0,1.05833 -0.84667,1.905 -1.905,1.905 -1.05833,0 -1.905,-0.84667 -1.905,-1.905 0,-1.05834 0.84667,-1.905 1.905,-1.905 1.05833,0 1.905,0.84666 1.905,1.905"
         fill="#ffffff"
         id="path883" />
      <circle
         style="stroke-width:0.264583"
         cx="104.30945"
         cy="255.09196"
         r="0.95249999"
         fill="#231f20"
         id="circle885" />
      <path
         style="stroke-width:0.264583"
         d="m 111.18862,255.09197 c 0,1.05833 -0.84667,1.905 -1.905,1.905 -1.05834,0 -1.90501,-0.84667 -1.90501,-1.905 0,-1.05834 0.84667,-1.905 1.90501,-1.905 1.03187,0 1.905,0.84666 1.905,1.905"
         fill="#ffffff"
         id="path887" />
      <g
         transform="matrix(0.26458333,0,0,0.26458333,98.065281,246.01676)"
         fill="#231f20"
         id="g893">
        <circle
           cx="40.400002"
           cy="34.299999"
           r="3.5999999"
           id="circle889" />
        <path
           d="m 38,50.6 c 0,3.3 -2.7,6 -6,6 -3.3,0 -6,-2.7 -6,-6 0,-3.3 2.7,-6 6,-6 3.3,0 6,2.7 6,6"
           id="path891" />
      </g>
    </g>
  </g>
</svg>
