#define e0cbd00a4bbf4341ee345ff9e39bec8aXO5Zx9WfMM71onVu_width 32
#define e0cbd00a4bbf4341ee345ff9e39bec8aXO5Zx9WfMM71onVu_height 32
static char e0cbd00a4bbf4341ee345ff9e39bec8aXO5Zx9WfMM71onVu_bits[] = {
  0xFF, 0x00, 0x00, 0x00, 0xFF, 0x07, 0x00, 0x00, 0xFF, 0x0F, 0x00, 0x00, 
  0xFF, 0x3F, 0x00, 0x00, 0xFF, 0x7F, 0x00, 0x00, 0xFF, 0xFF, 0x00, 0x00, 
  0xFF, 0xFF, 0x00, 0x00, 0xFF, 0xFF, 0x00, 0x00, 0xFE, 0xFF, 0x00, 0x00, 
  0xFE, 0xFF, 0x00, 0x00, 0xFC, 0xFF, 0x00, 0x00, 0xFC, 0xFF, 0x70, 0x00, 
  0xF8, 0xFF, 0xFD, 0x01, 0xF0, 0xFF, 0xFF, 0x01, 0xE0, 0xFF, 0xFF, 0x03, 
  0xC0, 0xEF, 0xFF, 0x03, 0x00, 0xC0, 0xFF, 0x03, 0x00, 0xC0, 0xFF, 0x01, 
  0x00, 0xE0, 0xFF, 0x01, 0x00, 0xE0, 0xFF, 0x01, 0x00, 0xE0, 0xFF, 0x00, 
  0x00, 0xE0, 0x7F, 0x00, 0x00, 0xE0, 0x3F, 0x00, 0x00, 0xC0, 0x1F, 0x00, 
  0x00, 0x80, 0x07, 0x00, 0x00, 0x00, 0x00, 0x00, 0x00, 0x00, 0x00, 0x00, 
  0x00, 0x00, 0x00, 0x00, 0x00, 0x00, 0x00, 0x00, 0x00, 0x00, 0x00, 0x00, 
  0x00, 0x00, 0x00, 0x00, 0x00, 0x00, 0x00, 0x00, };
