#define 1605636647269_width 32
#define 1605636647269_height 32
static char 1605636647269_bits[] = {
  0x01, 0x00, 0x00, 0x00, 0x06, 0x00, 0x00, 0x00, 0x1E, 0x00, 0x00, 0x00, 
  0x7C, 0x00, 0x00, 0x00, 0xFC, 0x01, 0x00, 0x00, 0xF8, 0x07, 0x00, 0x00, 
  0xF8, 0x1F, 0x00, 0x00, 0xF0, 0x7F, 0x00, 0x00, 0xF0, 0xFF, 0x01, 0x00, 
  0xE0, 0xFF, 0x00, 0x00, 0xE0, 0x1F, 0x00, 0x00, 0xC0, 0x3F, 0x00, 0x00, 
  0xC0, 0x7B, 0x00, 0x00, 0x80, 0xF3, 0x00, 0x00, 0x80, 0xE3, 0x01, 0x00, 
  0x00, 0xC3, 0x03, 0x00, 0x00, 0x81, 0x07, 0x00, 0x00, 0x00, 0x0F, 0x00, 
  0x00, 0x00, 0x1E, 0x00, 0x00, 0x00, 0x3C, 0x00, 0x00, 0x00, 0xF8, 0x1F, 
  0x00, 0x00, 0xF0, 0x3F, 0x00, 0x00, 0xE0, 0x7F, 0x00, 0x00, 0xE0, 0xFF, 
  0x00, 0x00, 0xE0, 0xFF, 0x00, 0x00, 0xE0, 0xFF, 0x00, 0x00, 0xE0, 0xFF, 
  0x00, 0x00, 0xE0, 0xFF, 0x00, 0x00, 0xE0, 0x1F, 0x00, 0x00, 0xC0, 0x0F, 
  0x00, 0x00, 0x80, 0x0F, 0x00, 0x00, 0x00, 0x0E, };
